<?xml version="1.0" encoding="UTF-8" standalone="no"?>
<svg viewBox="0 0 16 16" style="display:inline;enable-background:new" version="1.0" id="svg11300" height="16" width="16" xmlns="http://www.w3.org/2000/svg" xmlns:svg="http://www.w3.org/2000/svg" xmlns:rdf="http://www.w3.org/1999/02/22-rdf-syntax-ns#" xmlns:cc="http://creativecommons.org/ns#" xmlns:dc="http://purl.org/dc/elements/1.1/">
  <metadata id="metadata11">
    <rdf:RDF>
      <cc:Work rdf:about="">
        <dc:format>image/svg+xml</dc:format>
        <dc:type rdf:resource="http://purl.org/dc/dcmitype/StillImage" />
      </cc:Work>
    </rdf:RDF>
  </metadata>
  <defs id="defs9" />
  <path d="M 2.3730469,16 C 1.8687767,15.300131 1.6152344,14.521516 1.6152344,13.664063 c 0,-0.896001 0.1604687,-1.664688 0.4804687,-2.304688 0.32,-0.64 0.6558125,-1.151156 1.0078125,-1.5351562 0.384,-0.416 0.6564063,-0.6715782 0.8164063,-0.7675782 0.48,-0.384 0.5117031,-0.6732343 0.095703,-0.8652343 C 3.375625,7.8714062 2.8159375,7.5038906 2.3359375,7.0878906 1.8559375,6.6398906 1.6152344,5.8395 1.6152344,4.6875 c 0,-1.248 0.4011718,-2.3990781 1.2011719,-3.4550781 C 3.1585635,0.78077436 3.5466074,0.36969743 3.9824219,0 H 1.3417969 C 0.59849686,0 0,0.58740341 0,1.3164062 V 1.6230469 14.376953 14.683594 C 0,15.412598 0.59849686,16 1.3417969,16 Z" style="fill:#3b82f6;stroke-width:0.15236;marker:none" id="path16" />
  <path d="m 12.027344,0 c -0.111061,0.12901581 -0.253241,0.25085837 -0.427735,0.3671875 -0.448,0.32 -0.959156,0.48046875 -1.535156,0.48046875 -1.8559999,0 -3.3280155,0.40117185 -4.4160155,1.20117185 -1.088,0.768 -1.6328125,1.90225 -1.6328125,3.40625 0,0.512 0.1436406,0.9280469 0.4316406,1.2480469 0.32,0.32 0.6894688,0.4804687 1.1054688,0.4804687 0.256,10e-8 0.5749844,-0.1119374 0.9589843,-0.3359375 0.416,-0.2239999 0.848875,-0.46275 1.296875,-0.71875 0.48,-0.2879999 0.9426251,-0.5455312 1.3906251,-0.7695312 0.48,-0.224 0.8811722,-0.3359375 1.2011722,-0.3359375 0.512,0 0.974625,0.1604687 1.390625,0.4804687 0.416,0.288 0.625,0.6089376 0.625,0.9609375 0,0.6720001 -0.30411,1.2465625 -0.91211,1.7265626 -0.608,0.4799999 -1.184515,0.7207031 -1.7285154,0.7207031 -0.288,0 -0.6238125,0.016828 -1.0078125,0.048828 -0.352,0 -0.7512187,0.046578 -1.1992187,0.1425781 -0.416,0.064 -0.848875,0.1759375 -1.296875,0.3359375 -0.8,0.288 -1.4547969,0.7357499 -1.9667969,1.3437499 -0.512,0.608 -0.7695312,1.26475 -0.7695312,1.96875 -1e-7,0.512 0.3209375,1.023156 0.9609374,1.535156 0.6400001,0.512 1.4235626,0.769532 2.3515625,0.769532 0.736,0 1.5046875,-0.128766 2.3046876,-0.384766 0.7999999,-0.256 1.5350312,-0.560109 2.2070312,-0.912109 0.672,-0.384 1.185109,-0.736641 1.537109,-1.056641 0.288,-0.224 0.511875,-0.399344 0.671875,-0.527344 0.192,-0.16 0.303938,-0.240234 0.335938,-0.240234 0.32,0 0.480469,0.272406 0.480469,0.816406 0,0.768 -0.209,1.488156 -0.625,2.160156 C 13.508909,15.298043 13.205193,15.660612 12.849609,16 h 1.808594 C 15.401503,16 16,15.412598 16,14.683594 V 14.376953 1.6230469 1.3164062 C 16,0.58740341 15.401503,0 14.658203,0 Z" style="fill:#dc8add;stroke-width:0.15236;marker:none" id="path13" />
  <path d="M 12.027344,0 H 3.9824219 C 3.5466074,0.36969743 3.1585635,0.78077436 2.8164063,1.2324219 2.0164062,2.2884219 1.6152344,3.4395 1.6152344,4.6875 c 0,1.152 0.2407031,1.9523906 0.7207031,2.4003906 0.48,0.416 1.0396875,0.7835156 1.6796875,1.1035157 0.416,0.192 0.3842969,0.4812343 -0.095703,0.8652343 -0.16,0.096 -0.4324063,0.3515782 -0.8164063,0.7675782 -0.352,0.3840002 -0.6878125,0.8951562 -1.0078125,1.5351562 -0.32,0.64 -0.4804687,1.408687 -0.4804687,2.304688 0,0.857453 0.2535423,1.636068 0.7578125,2.335937 H 12.849609 c 0.355584,-0.339388 0.6593,-0.701957 0.910157,-1.087891 0.416,-0.672 0.625,-1.392156 0.625,-2.160156 0,-0.544 -0.160469,-0.816406 -0.480469,-0.816406 -0.032,0 -0.143938,0.08023 -0.335938,0.240234 -0.16,0.128 -0.383875,0.303344 -0.671875,0.527344 -0.352,0.32 -0.865109,0.672641 -1.537109,1.056641 -0.672,0.352 -1.4070313,0.656109 -2.2070312,0.912109 -0.8000001,0.256 -1.5686876,0.384766 -2.3046876,0.384766 -0.9279999,0 -1.7115624,-0.257532 -2.3515625,-0.769532 -0.6399999,-0.512 -0.9609375,-1.023156 -0.9609374,-1.535156 0,-0.704 0.2575312,-1.36075 0.7695312,-1.96875 0.512,-0.608 1.1667969,-1.0557499 1.9667969,-1.3437499 0.448,-0.16 0.880875,-0.2719375 1.296875,-0.3359375 0.448,-0.096 0.8472187,-0.1425781 1.1992187,-0.1425781 0.384,-0.032 0.7198125,-0.048828 1.0078125,-0.048828 0.5440004,0 1.1205154,-0.2407032 1.7285154,-0.7207031 0.608,-0.4800001 0.91211,-1.0545625 0.91211,-1.7265626 0,-0.3519999 -0.209,-0.6729375 -0.625,-0.9609375 -0.416,-0.32 -0.878625,-0.4804687 -1.390625,-0.4804687 -0.32,0 -0.7211722,0.1119375 -1.2011722,0.3359375 -0.448,0.224 -0.9106251,0.4815313 -1.3906251,0.7695312 -0.448,0.256 -0.880875,0.4947501 -1.296875,0.71875 -0.3839999,0.2240001 -0.7029843,0.3359376 -0.9589843,0.3359375 -0.416,0 -0.7854688,-0.1604687 -1.1054688,-0.4804687 -0.288,-0.32 -0.4316406,-0.7360469 -0.4316406,-1.2480469 0,-1.504 0.5448125,-2.63825 1.6328125,-3.40625 1.088,-0.8 2.5600156,-1.20117185 4.4160155,-1.20117185 0.576,0 1.087156,-0.16046875 1.535156,-0.48046875 C 11.774103,0.25085837 11.916283,0.12901581 12.027344,0 Z" style="font-size:48px;line-height:25px;font-family:'EB Garamond';-inkscape-font-specification:'EB Garamond, Normal';text-align:center;letter-spacing:0px;word-spacing:0px;text-anchor:middle;fill:#ffffff;stroke-width:1px" id="path14" />
</svg>
